<svg width="113" height="113" viewBox="0 0 113 113" fill="none" xmlns="http://www.w3.org/2000/svg">
<g clip-path="url(#clip0_377_2659)">
<rect width="113" height="113" fill="#F7F7F7"/>
<rect width="113" height="113" fill="#F7F7F7" fill-opacity="0.05"/>
<path d="M19.2578 61V52.5156H22.0352C23.8633 52.5156 24.7891 53.6523 24.7891 55.1523C24.7891 56.6406 23.8633 57.7891 22.0469 57.7891H20.0898V61H19.2578ZM20.0898 57.0391H22.0117C23.3359 57.0391 23.9688 56.2422 23.9688 55.1523C23.9688 54.0508 23.3359 53.2656 22 53.2656H20.0898V57.0391ZM26.2305 61V54.6367H27.0039V55.6211H27.0625C27.3203 54.9766 28 54.543 28.7852 54.543C28.9141 54.543 29.1016 54.543 29.1953 54.5547V55.3633C29.125 55.3516 28.9375 55.3164 28.7266 55.3164C27.7539 55.3164 27.0391 55.9844 27.0391 56.9102V61H26.2305ZM32.5352 61.1289C30.8711 61.1289 29.7109 59.793 29.7109 57.8477C29.7109 55.8906 30.8711 54.543 32.5352 54.543C34.1992 54.543 35.3477 55.8906 35.3477 57.8477C35.3477 59.793 34.1992 61.1289 32.5352 61.1289ZM32.5352 60.4141C33.8359 60.4141 34.5508 59.2422 34.5508 57.8477C34.5508 56.4531 33.8359 55.2695 32.5352 55.2695C31.2227 55.2695 30.5078 56.4531 30.5078 57.8477C30.5078 59.2422 31.2227 60.4141 32.5352 60.4141ZM39.0508 61.1289C37.4922 61.1289 36.4258 59.8164 36.4258 57.8359C36.4258 55.8555 37.4922 54.543 39.0625 54.543C40.2344 54.543 40.75 55.2812 40.9961 55.8203H41.0547V52.5156H41.8633V61H41.0781V59.8516H40.9961C40.7383 60.4023 40.2109 61.1289 39.0508 61.1289ZM39.1562 60.4141C40.375 60.4141 41.0781 59.3359 41.0781 57.8242C41.0781 56.3242 40.3867 55.2695 39.1562 55.2695C37.9023 55.2695 37.2344 56.3828 37.2344 57.8242C37.2344 59.2773 37.9141 60.4141 39.1562 60.4141ZM47.7695 58.5391V54.6367H48.5664V61H47.7695V59.9453H47.7109C47.418 60.5898 46.7617 61.082 45.8242 61.082C44.6055 61.082 43.7266 60.2617 43.7266 58.75V54.6367H44.5352V58.6914C44.5352 59.6641 45.1562 60.3086 46.0586 60.3086C46.8906 60.3086 47.7695 59.6992 47.7695 58.5391ZM52.7969 61.1289C51.0625 61.1289 49.9609 59.7461 49.9609 57.8477C49.9609 55.9258 51.0977 54.543 52.7852 54.543C54.0742 54.543 55.0703 55.3516 55.2344 56.5352H54.4375C54.2852 55.8438 53.6875 55.2695 52.7969 55.2695C51.5898 55.2695 50.7578 56.3008 50.7578 57.8242C50.7578 59.3477 51.5664 60.4141 52.7969 60.4141C53.6172 60.4141 54.2617 59.9219 54.4375 59.1367H55.2461C55.0703 60.2852 54.1328 61.1289 52.7969 61.1289ZM59.1484 54.6367V55.3164H57.8125V59.3008C57.8125 60.1094 58.2578 60.332 58.7383 60.332C58.9023 60.332 59.1367 60.3086 59.2656 60.3086V61.0586C59.1367 61.0703 58.9375 61.0938 58.668 61.0938C57.8359 61.0938 57.0039 60.5547 57.0039 59.5V55.3164H56.0547V54.6367H57.0039V53.1133H57.8125V54.6367H59.1484ZM63.4844 61V54.6367H64.2812V61H63.4844ZM63.8945 53.5469C63.5781 53.5469 63.3086 53.3008 63.3086 52.9961C63.3086 52.6914 63.5781 52.4336 63.8945 52.4336C64.2109 52.4336 64.4805 52.6914 64.4805 52.9961C64.4805 53.3008 64.2109 53.5469 63.8945 53.5469ZM66.0039 61V54.6367H66.7773V55.6211H66.8477C67.1055 54.9531 67.7266 54.5547 68.5586 54.5547C69.4258 54.5547 70 54.9883 70.2812 55.7031H70.3281C70.6211 55 71.2891 54.5547 72.2148 54.5547C73.3984 54.5547 74.1484 55.3047 74.1484 56.7344V61H73.3398V56.7461C73.3398 55.7617 72.7891 55.2812 71.9688 55.2812C71.0195 55.2812 70.4805 55.9258 70.4805 56.8281V61H69.6719V56.6758C69.6719 55.8438 69.168 55.2812 68.3242 55.2812C67.457 55.2812 66.8125 55.9609 66.8125 56.9453V61H66.0039ZM75.5547 59.2188C75.5547 57.9297 76.5977 57.4375 77.8984 57.332C78.3203 57.3027 79.3516 57.2441 79.6562 57.2266V56.6289C79.6562 55.7734 79.1055 55.2578 78.1094 55.2578C77.2773 55.2578 76.7148 55.6445 76.5625 56.2188H75.7305C75.8594 55.2109 76.832 54.543 78.1562 54.543C79.1055 54.543 80.4531 54.9531 80.4531 56.6992V61H79.6562V60.0156H79.6094C79.3516 60.5664 78.7188 61.1406 77.6523 61.1406C76.4922 61.1406 75.5547 60.4492 75.5547 59.2188ZM76.3516 59.2539C76.3516 60.0039 76.9492 60.4258 77.7695 60.4258C78.9414 60.4258 79.6562 59.582 79.6562 58.5742V57.8945L78.0156 58.0117C76.8906 58.0938 76.3516 58.5273 76.3516 59.2539ZM84.6367 63.5195C83.2305 63.5195 82.2109 62.9219 82.0586 61.7969H82.9023C83.0547 62.4766 83.7227 62.8164 84.6367 62.8164C85.7969 62.8164 86.5 62.2773 86.5 61.1172V59.7109H86.4297C86.1836 60.2617 85.6445 60.9297 84.4844 60.9297C82.9609 60.9297 81.8594 59.7227 81.8594 57.7656C81.8594 55.8203 82.9258 54.543 84.4961 54.543C85.6797 54.543 86.1836 55.2812 86.4414 55.8203H86.5117V54.6367H87.2969V61.1641C87.2969 62.7812 86.1719 63.5195 84.6367 63.5195ZM84.5898 60.2148C85.7969 60.2148 86.5117 59.3008 86.5117 57.7891C86.5117 56.3242 85.8203 55.2695 84.5898 55.2695C83.3359 55.2695 82.668 56.3828 82.668 57.7891C82.668 59.2188 83.3477 60.2148 84.5898 60.2148ZM91.6211 61.1289C89.8281 61.1289 88.7031 59.793 88.7031 57.8594C88.7031 55.9258 89.8516 54.543 91.5039 54.543C92.8867 54.543 94.2227 55.5273 94.2227 57.6836V58.0586H89.5C89.5352 59.4941 90.3496 60.4141 91.6211 60.4141C92.5 60.4141 93.0156 59.957 93.2383 59.5586H94.0938C93.8125 60.4375 92.9102 61.1289 91.6211 61.1289ZM89.5117 57.3672H93.4023C93.4023 56.1719 92.6289 55.2695 91.5156 55.2695C90.3613 55.2695 89.5762 56.2188 89.5117 57.3672Z" fill="#D9D9D9"/>
</g>
<defs>
<clipPath id="clip0_377_2659">
<rect width="113" height="113" fill="white"/>
</clipPath>
</defs>
</svg>
